PathFileType	4	(X/Y/Z)	67_1_39_p0_0-132_filt_butterworth.trc
DataRate	CameraRate	NumFrames	NumMarkers	Units	OrigDataRate	OrigDataStartFrame	OrigNumFrames
51.0	51.0	4	27	m	51.0	0	132
Frame#	Time	RHip			RKnee			RAnkle			RBigToe			RSmallToe			RHeel			LHip			LKnee			LAnkle			LBigToe			LSmallToe			LHeel			Neck			Head			Nose			RShoulder			RElbow			RWrist			RThumb			RIndex			RPinky			LShoulder			LElbow			LWrist			LThumb			LIndex			LPinky			
		X1	Y1	Z1	X2	Y2	Z2	X3	Y3	Z3	X4	Y4	Z4	X5	Y5	Z5	X6	Y6	Z6	X7	Y7	Z7	X8	Y8	Z8	X9	Y9	Z9	X10	Y10	Z10	X11	Y11	Z11	X12	Y12	Z12	X13	Y13	Z13	X14	Y14	Z14	X15	Y15	Z15	X16	Y16	Z16	X17	Y17	Z17	X18	Y18	Z18	X19	Y19	Z19	X20	Y20	Z20	X21	Y21	Z21	X22	Y22	Z22	X23	Y23	Z23	X24	Y24	Z24	X25	Y25	Z25	X26	Y26	Z26	X27	Y27	Z27	
0	0.0	0.35531327010334735	0.4560174374068683	-0.11132664620186736	0.35116699790407735	0.6401651881988415	0.3187501388892805	0.337416324367775	0.7849273533502118	0.7502173590698393	0.33733487632817843	0.5827167041169727	0.7974307661529436	0.3948851276634293	0.6560557272146694	0.8087007594749498	0.31674010392454244	0.8788925747939479	0.8016171814660091	0.17711744559416745	0.4827446388312079	-0.10806650452135051	0.16954887241432917	0.6828820729299028	0.31719338688268084	0.1667412136510012	0.8148940860733671	0.7679584189208117	0.1928975938613659	0.6157758156068706	0.7948636521262525	0.1522711120126153	0.6381634043639145	0.7777214978668818	0.17522175060005185	0.8758012544612539	0.8153038914757718	0.30335375960218064	0.34995931140757	-0.6326902226857136	0.3094836711605148	0.2102294020259577	-0.8519379709328079	0.30118266274643224	0.19534773240243897	-0.7159296096950136	0.4464421470871833	0.3577563748160057	-0.5282000969311967	0.465498528676178	0.42088488641878813	-0.24943924909182807	0.3346943037293198	0.3826645717686772	-0.027617036701992295	0.273587006060161	0.40249010357644155	0.06693303700829703	0.2735859435150641	0.41527899515812383	0.07638693581653029	0.2795018691361091	0.40032500325295617	0.06339598870124256	0.14511260489339664	0.3577845321266749	-0.5595732154422578	0.12991902597935712	0.4081864619651633	-0.29497101339999077	0.19940239257436604	0.34370857964359797	-0.051508646635477426	0.29639061854517934	0.35749385015762747	0.018892679645652888	0.28807528888279316	0.38294216434952205	0.05984430502871096	0.2472736795407139	0.34758378348494284	0.071239594275367
1	0.0196078431372549	0.3566672131579668	0.4514191915133213	-0.11149644414438686	0.3492778414695709	0.6302864912232299	0.31983340203961985	0.338220115072289	0.7887943355246111	0.749766032738812	0.3405632914968374	0.5709249824807754	0.7937175824427973	0.3985111430720698	0.6437040007688214	0.8024381815913445	0.3169171917507389	0.8784602415540326	0.8014768726947054	0.17704166632766236	0.482673960879881	-0.10808924056944338	0.16894968851942754	0.6835184606439394	0.3201657521948204	0.1662931677428716	0.8139927574260388	0.7633869906429361	0.1933572855840183	0.6135752608297785	0.7902724025739067	0.15211119105526538	0.6380229745531021	0.7779001499003362	0.1772727542326878	0.8781324988108402	0.8157944702807504	0.3033333497560649	0.34996202860158354	-0.63277373104204	0.3084193784665445	0.21017607242669076	-0.8497270838940748	0.3011156887677532	0.1940259430290237	-0.7180846429438156	0.44644697149042667	0.35775938617362524	-0.52821144439977	0.4657633373870821	0.4208088805395607	-0.24698227485525248	0.33464732177462453	0.38164771949163934	-0.027542113480630945	0.2713270421812132	0.3930627754684867	0.06771855350622016	0.2745649335425085	0.3976045823401223	0.07576681884501958	0.27957185066319146	0.40057209523517673	0.06603192747671466	0.14504470903357858	0.35708378740366953	-0.5604504900127477	0.13343645442400875	0.39959024172721014	-0.2943639023275874	0.19946607903541666	0.3435994156754142	-0.05144069212243867	0.2976683806234494	0.35568474808321193	0.01595840243776298	0.29106904401397343	0.3740145496149696	0.05939978273011477	0.2462224106298783	0.35250238629635344	0.07143403179685842
2	0.0392156862745098	0.3572000143768731	0.4496098451849454	-0.11158463334735223	0.34812765502490606	0.6251863472065556	0.31987099048320733	0.338166480128741	0.7883811511743034	0.7497620764938244	0.34209584862309783	0.5647233302048114	0.7918330840170092	0.4003063351580657	0.6374246994124201	0.7992675684163522	0.31691817597148986	0.8781700360377409	0.8014441316254566	0.17698378523760186	0.4826450139416651	-0.10808805680449257	0.16864103734537117	0.6838421494422884	0.3217408807158042	0.1661936776718468	0.8140792025944947	0.7621351937257316	0.1937348951487556	0.6129455908160117	0.7888263457304098	0.1519997720678417	0.637872123386102	0.7780090649735808	0.17927887062614808	0.880384271708474	0.8163997964316475	0.30332162156290693	0.3499852691365544	-0.632823110695274	0.30826814556504734	0.21026920965398838	-0.8486317775263782	0.3011703161906313	0.19336279229078557	-0.7191996410367266	0.44642658084104525	0.3577564755638844	-0.5282109216981948	0.46592636802457055	0.4206792453170836	-0.24565394172472987	0.334599173281413	0.3812678569220377	-0.02748054441516405	0.2704437347194546	0.3885687359372866	0.0680217748512745	0.27498067292517875	0.3882224934357328	0.07548357629361817	0.27960812016366127	0.4007093319335794	0.06742895494429751	0.14501051683811594	0.35709956474985177	-0.5603897430112192	0.13525104943293087	0.39514005955158904	-0.2940578318192157	0.19949176961449164	0.34357855228470063	-0.05139212328419653	0.29915878247330097	0.3553708547238471	0.014599552096991437	0.2927246416520414	0.36988893484070773	0.06000610728034991	0.24600687817344674	0.3539112895839003	0.07140643893155557
3	0.0588235294117647	0.3566004869833194	0.4515715483413566	-0.11156671369908466	0.34761648671941453	0.6244920462914835	0.31990744731612125	0.3376476195120203	0.7856880592387707	0.7500100839098185	0.3421671956487758	0.5639783375274916	0.7916850581693042	0.40044068723377585	0.6367949472272367	0.798954567380364	0.3167949130956069	0.8780685074981824	0.8014938660590539	0.17695074585430207	0.4826450921398769	-0.10807173860205303	0.16860478719541908	0.6838986729890095	0.3220541267089834	0.16631729586979221	0.8147093024805447	0.7631961492052945	0.1939328410823244	0.6134229091945049	0.7896731617485171	0.15196048981876434	0.6376897192025996	0.7780234259211902	0.180453972822415	0.8815173063941438	0.8168068576020828	0.3033193652981007	0.35001417098754534	-0.6328439911554187	0.30798342656249583	0.21022568232465783	-0.8484786422926646	0.30125903189621084	0.19329876536614182	-0.7193490435857494	0.4463351574983425	0.35773554411673003	-0.5282039940250431	0.46561830220180545	0.42103056081089585	-0.24549725647427637	0.33457561067955605	0.3813766254973709	-0.027458433274771238	0.2706234424975309	0.3883088967356898	0.06749684389949784	0.27494115724299434	0.3867743745437005	0.07545583079948377	0.2796125623186303	0.4007254314837706	0.06761104683733041	0.14499163082150662	0.35752298676164646	-0.5598311470002512	0.13546772524030373	0.39457819511596876	-0.2940260723124782	0.19949191901677335	0.34362079258092226	-0.05138620558436135	0.3002840122335725	0.35628815592507135	0.014656658032113929	0.29310053965081284	0.3701511794966434	0.06142714647307411	0.24596043055954875	0.3537890787885054	0.07128988438224429
